<svg width="750" height="650" viewBox="0 0 750 650" fill="none" xmlns="http://www.w3.org/2000/svg">
<g clip-path="url(#clip0_922_307)">
<path d="M388.445 545.917L410.43 539.373L404.015 561.65L410.43 583.865L388.445 577.383L366.398 583.865L372.875 561.65L366.398 539.373L388.445 545.917Z" fill="black" stroke="white" stroke-miterlimit="10"/>
</g>
<g clip-path="url(#clip1_922_307)">
<path d="M156.062 436.079L195.377 457.724L156.062 479.544L134.555 519.184L113.048 479.544L73.7328 457.724L113.048 436.079L134.555 396.265L156.062 436.079Z" fill="black" stroke="white" stroke-miterlimit="10"/>
</g>
<path d="M705.292 491.452C702.897 495.839 698.443 498.999 692.059 500.955C685.673 502.912 677.399 503.649 667.447 503.215C647.547 502.347 621.053 496.805 589.805 487.141C527.317 467.814 445.919 432.039 360.431 384.389C274.942 336.74 201.574 286.254 152.063 243.155C127.304 221.602 108.532 201.915 97.19 185.369C91.5184 177.095 87.7212 169.629 85.9525 163.127C84.1845 156.628 84.454 151.135 86.8486 146.748C89.2432 142.361 93.6972 139.201 100.081 137.245C106.467 135.288 114.742 134.551 124.693 134.985C144.594 135.853 171.087 141.395 202.335 151.059C264.823 170.386 346.221 206.161 431.71 253.811C517.199 301.46 590.566 351.946 640.077 395.045C664.836 416.598 683.608 436.285 694.95 452.831C700.622 461.105 704.419 468.571 706.188 475.073C707.956 481.572 707.686 487.065 705.292 491.452Z" stroke="black"/>
<path d="M680.024 537.74C677.629 542.127 673.175 545.287 666.792 547.243C660.406 549.2 652.131 549.937 642.18 549.503C622.279 548.636 595.786 543.093 564.538 533.429C502.05 514.102 420.652 478.327 335.163 430.678C249.674 383.028 176.306 332.542 126.795 289.443C102.037 267.89 83.2645 248.203 71.9224 231.657C66.2509 223.383 62.4536 215.918 60.6849 209.415C58.9169 202.916 59.1864 197.423 61.581 193.036C63.9756 188.649 68.4296 185.489 74.8133 183.533C81.1996 181.576 89.474 180.839 99.4254 181.273C119.326 182.141 145.819 187.683 177.067 197.348C239.555 216.674 320.953 252.449 406.442 300.099C491.931 347.748 565.299 398.234 614.81 441.334C639.568 462.886 658.341 482.573 669.683 499.119C675.354 507.393 679.151 514.859 680.92 521.361C682.688 527.86 682.419 533.353 680.024 537.74Z" stroke="black"/>
<path d="M654.758 584.028C652.364 588.415 647.91 591.576 641.526 593.532C635.14 595.489 626.865 596.225 616.914 595.792C597.013 594.924 570.52 589.382 539.272 579.717C476.784 560.391 395.386 524.615 309.897 476.966C224.408 429.317 151.041 378.83 101.53 335.731C76.7711 314.179 57.9988 294.492 46.6568 277.945C40.9852 269.671 37.188 262.206 35.4193 255.704C33.6513 249.204 33.9208 243.712 36.3154 239.325C38.71 234.938 43.164 231.778 49.5477 229.822C55.934 227.865 64.2084 227.128 74.1597 227.562C94.0604 228.429 120.554 233.972 151.802 243.636C214.29 262.962 295.688 298.738 381.177 346.387C466.665 394.036 540.033 444.523 589.544 487.622C614.303 509.174 633.075 528.862 644.417 545.408C650.089 553.682 653.886 561.147 655.655 567.649C657.423 574.149 657.153 579.642 654.758 584.028Z" stroke="black"/>
<ellipse cx="164.247" cy="131.893" rx="19.3602" ry="19.5631" fill="#B9FF66"/>
<ellipse cx="525.844" cy="549.029" rx="12.4904" ry="12.6213" fill="#B9FF66"/>
<ellipse cx="101.796" cy="81.4082" rx="29.3525" ry="29.6602" fill="black"/>
<path d="M382.165 524.992C374.291 527.943 365.292 522.095 362.162 511.956L313.451 355.464L341.915 344.788L390.675 501.494C393.805 511.527 389.99 522.042 382.165 524.992Z" fill="black"/>
<path d="M377.91 526.924C375.611 526.924 373.263 526.334 371.014 525.1C366.465 522.632 362.846 518.018 361.086 512.331L312.375 355.839C312.179 355.249 312.473 354.552 313.06 354.337L341.523 343.661C341.817 343.554 342.11 343.554 342.355 343.715C342.599 343.876 342.795 344.09 342.892 344.412L391.652 501.119C394.929 511.741 390.821 522.954 382.458 526.119C381.04 526.656 379.475 526.924 377.91 526.924ZM314.82 356.215L363.189 511.58C364.754 516.677 367.982 520.862 371.992 523.008C375.22 524.724 378.692 525.046 381.822 523.866C389.06 521.13 392.582 511.259 389.647 501.87L341.23 346.29L314.82 356.215Z" fill="black"/>
<path d="M336.875 193.589L244.784 259.986L208.935 297.609L194.85 322.773L194.801 322.971C192.014 327.322 193.628 337.358 198.861 347.592C203.996 357.677 211.234 364.698 216.32 365.093L216.173 365.192L243.219 368.158L293.837 360.001L401.285 321.142L534.849 344.279L535.778 344.329C502.228 338 456.94 292.665 424.026 228.542C391.161 164.469 380.695 101.138 395.123 69.8926H395.074L337.608 192.007L336.875 193.589Z" fill="#B9FF66"/>
<path d="M557.976 370.247C590.985 351.443 584.602 266.194 543.719 179.838C502.836 93.4825 442.935 38.7214 409.926 57.5258C376.917 76.3302 383.3 161.579 424.183 247.935C465.066 334.291 524.967 389.052 557.976 370.247Z" fill="white"/>
<path d="M543.46 375.154C529.082 375.154 511.769 366.356 493.135 349.242C467.753 325.959 442.86 290.068 423.052 248.115C393.073 184.596 380.699 119.467 391.557 82.1811C395.176 69.7347 401.24 61.0437 409.505 56.3763C425.938 47.1488 449.071 54.9814 474.698 78.4794C500.08 101.763 524.974 137.653 544.781 179.606C574.809 243.126 587.183 308.255 576.277 345.541C572.657 357.987 566.593 366.678 558.328 371.345C553.877 373.921 548.889 375.154 543.46 375.154ZM424.471 54.9814C419.433 54.9814 414.738 56.108 410.532 58.5222C402.756 62.8677 397.083 71.1296 393.66 82.9858C382.949 119.735 395.273 184.167 425.009 247.15C465.503 332.826 524.876 387.655 557.399 369.36C565.175 365.015 570.848 356.753 574.271 344.897C584.982 308.148 572.657 243.716 542.922 180.733C507.661 106.162 458.167 54.9814 424.471 54.9814Z" fill="black"/>
<path d="M543.458 346.06C529.08 346.06 511.767 337.952 493.133 322.181C467.751 300.724 442.858 267.65 423.05 228.988C393.071 170.452 380.697 110.433 391.555 76.0733C395.174 64.6034 401.238 56.5943 409.503 52.2931C420.507 46.5581 434.886 47.9919 451.074 56.3965C466.577 64.4551 483.352 78.743 499.687 97.6781C500.078 98.1231 500.029 98.8152 499.589 99.2107C499.149 99.6062 498.464 99.5568 498.073 99.1119C464.914 60.6483 431.365 43.4435 410.53 54.2706C402.754 58.2752 397.081 65.8888 393.658 76.8148C382.947 110.681 395.271 170.057 425.007 228.098C460.219 296.769 509.762 343.983 543.409 343.983C548.447 343.983 553.142 342.945 557.348 340.72C565.124 336.716 570.797 329.102 574.221 318.176C584.931 284.311 572.607 224.934 542.871 166.893C534.019 149.589 524.042 133.324 513.332 118.541C512.99 118.047 513.087 117.355 513.576 117.009C514.065 116.663 514.75 116.762 515.093 117.256C525.901 132.137 535.878 148.501 544.828 165.904C574.807 224.39 587.181 284.409 576.275 318.769C572.656 330.239 566.591 338.248 558.326 342.55C553.875 344.923 548.887 346.06 543.458 346.06Z" fill="black"/>
<path d="M483.079 260.319C490.726 255.962 489.255 236.23 479.794 216.245C470.333 196.26 456.464 183.591 448.817 187.947C441.17 192.303 442.641 212.036 452.102 232.021C461.563 252.006 475.432 264.675 483.079 260.319Z" fill="#B9FF66"/>
<path d="M479.73 262.385C471.318 262.385 459.581 250.475 451.12 232.503C444.077 217.589 441.192 202.245 443.784 193.394C444.713 190.282 446.229 188.082 448.332 186.902C456.646 182.235 470.878 194.949 480.757 215.818C487.8 230.733 490.685 246.076 488.093 254.928C487.164 258.04 485.648 260.239 483.545 261.42C482.371 262.063 481.1 262.385 479.73 262.385ZM452.147 188.243C451.12 188.243 450.142 188.458 449.31 188.941C447.696 189.853 446.523 191.569 445.789 194.091C443.393 202.353 446.18 217.052 452.978 231.43C461.977 250.475 475.524 263.297 482.518 259.327C484.132 258.415 485.306 256.699 486.039 254.177C488.436 245.862 485.599 231.216 478.85 216.838C470.927 200.153 459.581 188.243 452.147 188.243Z" fill="#B9FF66"/>
<path d="M536.024 327.618C523.406 327.618 508.245 320.499 491.911 306.706C469.707 287.919 447.895 258.947 430.582 225.131C404.319 173.912 393.511 121.359 402.998 91.2502C406.177 81.1646 411.508 74.1443 418.795 70.3375C435.521 61.6857 460.121 71.6724 486.335 97.7267C486.775 98.1717 486.775 98.8144 486.335 99.2593C485.895 99.7043 485.259 99.7043 484.819 99.2593C459.29 73.8971 435.57 64.0093 419.773 72.2656C413.024 75.7758 408.085 82.3512 405.053 91.8929C395.711 121.457 406.471 173.368 432.489 224.142C463.251 284.211 506.534 325.443 535.975 325.443C540.377 325.443 544.436 324.504 548.153 322.625C554.902 319.115 559.842 312.539 562.874 302.998C572.215 273.433 561.456 221.522 535.437 170.748C527.563 155.422 518.76 141.035 509.272 128.033C508.93 127.538 509.028 126.846 509.517 126.5C510.006 126.154 510.691 126.253 511.033 126.747C520.619 139.898 529.471 154.334 537.394 169.759C563.656 220.978 574.465 273.532 564.977 303.64C561.798 313.726 556.467 320.746 549.18 324.553C545.17 326.58 540.768 327.618 536.024 327.618Z" fill="black"/>
<path d="M243.27 369.197C243.221 369.197 243.172 369.197 243.172 369.197L216.127 366.231C215.98 366.231 215.834 366.181 215.687 366.082C210.112 365.193 203.069 358.073 197.934 348.087C192.456 337.556 190.842 327.273 193.826 322.428L193.875 322.28L207.96 297.066C208.009 296.967 208.058 296.917 208.106 296.868L243.955 259.245C244.004 259.195 244.053 259.146 244.102 259.096L335.948 192.848L394.049 69.3989C394.196 69.1517 394.391 68.9539 394.685 68.855C394.978 68.7562 395.272 68.7562 395.516 68.9045C396.054 69.1517 396.299 69.7944 396.054 70.3382C381.333 102.226 392.973 165.607 424.958 227.999C456.992 290.49 501.644 336.765 536.025 343.143C536.563 343.242 536.954 343.736 536.905 344.329C536.856 344.873 536.367 345.269 535.829 345.318L534.9 345.269C534.851 345.269 534.802 345.269 534.753 345.269L401.434 322.181L294.231 360.941C294.182 360.941 294.084 360.99 294.035 360.99L243.417 369.148C243.368 369.197 243.319 369.197 243.27 369.197ZM216.91 364.154L243.27 367.022L293.644 358.864L401.043 320.055C401.238 320.005 401.385 319.956 401.581 320.005L521.597 340.77C489.172 326.383 451.27 283.915 423.149 229.038C395.223 174.556 382.752 119.233 389.599 84.28L337.856 194.035C337.758 194.183 337.66 194.331 337.513 194.43L245.52 260.827L209.818 298.252L195.733 323.466C195.733 323.515 195.684 323.565 195.684 323.565C193.141 327.569 194.853 337.457 199.792 347.098C204.634 356.541 211.628 363.66 216.421 364.006C216.616 364.006 216.763 364.056 216.91 364.154Z" fill="black"/>
<path d="M337.026 209.274L395.078 75.4214H395.127C380.699 109.327 391.214 178.051 424.031 247.579C456.945 317.214 502.232 366.41 535.88 373.169L534.951 373.116L401.582 348.062L398.501 347.472C382.998 344.468 362.311 322.365 347.492 290.819C332.282 258.469 329.592 226.227 336.341 210.883L337.026 209.274Z" fill="white"/>
<path d="M535.878 374.35C535.83 374.35 535.878 374.35 535.878 374.35L534.9 374.296C534.851 374.296 534.802 374.296 534.754 374.296L401.385 349.242L398.304 348.652C381.921 345.487 361.135 322.472 346.512 291.409C329.933 256.109 329.102 224.671 335.362 210.4L336.095 208.791L394.147 74.9921C394.294 74.7238 394.49 74.5092 394.783 74.4019C395.076 74.2946 395.37 74.2946 395.614 74.4556C396.152 74.7238 396.397 75.4212 396.152 76.0114C381.432 110.615 393.071 179.392 425.056 247.096C457.09 314.907 501.742 365.122 536.123 372.043C536.661 372.15 537.052 372.686 537.003 373.33C536.857 373.867 536.416 374.35 535.878 374.35ZM389.501 91.0865L338.003 209.81L337.269 211.42C331.058 225.583 332.867 257.235 348.42 290.283C362.749 320.755 382.948 343.287 398.696 346.292L401.777 346.882L521.549 369.414C489.124 353.802 451.221 307.718 423.1 248.169C395.174 189.048 382.703 129.016 389.501 91.0865Z" fill="black"/>
<path d="M241.801 369.049C241.752 369.049 241.703 369.049 241.703 369.049L216.076 366.28C215.929 366.28 215.783 366.231 215.636 366.132C210.061 365.242 203.018 358.123 197.883 348.136C192.454 337.556 190.84 327.273 193.824 322.428L193.873 322.28L207.958 297.066C208.251 296.522 208.887 296.374 209.425 296.67C209.963 296.967 210.11 297.61 209.816 298.153L195.731 323.466C195.731 323.516 195.682 323.565 195.682 323.565C193.139 327.57 194.851 337.457 199.79 347.098C204.632 356.541 211.626 363.66 216.418 364.006C216.565 364.006 216.761 364.056 216.859 364.155L241.899 366.874C242.486 366.923 242.926 367.467 242.828 368.06C242.779 368.604 242.339 369.049 241.801 369.049Z" fill="black"/>
<path d="M243.51 398.919C235.196 398.276 223.556 385.346 215.096 367.482C206.146 348.544 204.043 328.962 209.52 321.988L194.897 349.885L194.799 350.099C192.012 354.821 193.626 365.711 198.859 376.816C203.994 387.761 211.232 395.379 216.318 395.808L216.171 395.915L243.51 398.919Z" fill="white"/>
<path d="M243.513 400.1C243.464 400.1 243.464 400.1 243.415 400.1C243.219 400.1 242.975 400.046 242.779 400.046L216.076 397.095C215.929 397.095 215.783 397.042 215.636 396.934C210.061 395.969 203.018 388.243 197.883 377.406C192.454 365.926 190.84 354.767 193.824 349.509L193.873 349.348L206.735 324.777C207.224 323.383 207.86 322.149 208.642 321.129C208.985 320.647 209.62 320.593 210.061 320.915C210.501 321.29 210.647 321.934 210.354 322.471L208.545 325.85C205.659 334.381 208.496 351.119 215.929 366.784C223.999 383.898 235.003 396.398 242.877 397.525L243.464 397.578C244.051 397.632 244.491 398.222 244.442 398.866C244.491 399.617 244.051 400.1 243.513 400.1ZM216.859 394.789L235.541 396.881C228.352 391.838 220.429 381.43 214.12 368.018C208.007 355.089 204.974 341.677 205.463 332.02L195.731 350.636C195.731 350.69 195.682 350.743 195.682 350.743C193.139 355.089 194.851 365.818 199.79 376.28C204.632 386.527 211.626 394.252 216.418 394.628C216.565 394.628 216.761 394.681 216.859 394.789Z" fill="black"/>
<path d="M292.029 390.496L294.181 390.013C282.541 392.696 264.152 373.382 251.192 345.968C237.938 317.964 235.444 290.013 244.834 281.751L243.611 283.092L209.621 321.826C204.046 328.693 206.1 348.382 215.099 367.427C223.755 385.775 236.031 398.865 244.394 398.812L292.029 390.496Z" fill="black"/>
<path d="M244.344 400.046C235.443 400.046 223.07 386.902 214.12 368.018C205.023 348.705 202.725 328.533 208.789 321.076L242.143 283.093C242.73 282.234 243.415 281.483 244.148 280.84C244.589 280.464 245.224 280.518 245.616 280.947C246.007 281.43 246.007 282.127 245.616 282.556L243.708 284.756C236.91 294.734 240.285 320.271 252.169 345.432C264.983 372.578 282.882 391.194 293.837 388.941L293.984 388.887C294.571 388.78 295.109 389.155 295.256 389.799C295.354 390.443 295.011 391.033 294.424 391.194C294.375 391.194 294.327 391.194 294.278 391.248L292.272 391.677H292.224L244.589 399.992C244.491 399.992 244.393 400.046 244.344 400.046ZM239.307 289.745L210.403 322.685C205.023 329.338 207.468 348.758 216.076 366.945C224.488 384.756 236.372 397.632 244.344 397.686L286.404 390.336C275.057 385.937 261.07 369.359 250.262 346.559C239.991 324.831 236.03 302.728 239.307 289.745Z" fill="black"/>
<path d="M448.819 187.92C441.141 192.212 442.266 212.116 452.047 231.966C468.431 265.174 481.489 261.258 483.005 260.668C483.054 260.668 483.054 260.721 483.005 260.721L454.884 285.56C446.618 272.846 438.744 258.683 431.506 243.393C424.61 228.747 418.791 214.154 414.193 199.991L448.819 187.92Z" fill="black"/>
<path d="M454.885 286.74C454.836 286.74 454.787 286.74 454.738 286.74C454.445 286.687 454.2 286.526 454.005 286.258C445.544 273.221 437.67 258.951 430.578 243.983C423.78 229.605 417.912 214.959 413.217 200.474C413.119 200.152 413.119 199.83 413.266 199.562C413.412 199.294 413.608 199.079 413.901 198.972L448.527 186.901C449.065 186.74 449.652 187.008 449.848 187.598C450.043 188.189 449.848 188.832 449.359 189.101C447.696 190.013 446.473 191.837 445.739 194.519C443.343 202.942 446.277 217.856 453.075 231.536C469.068 263.94 481.392 260.238 482.713 259.702C483.202 259.487 483.789 259.755 484.033 260.238C484.278 260.721 484.18 261.418 483.789 261.794L455.57 286.472C455.374 286.633 455.13 286.74 454.885 286.74ZM415.613 200.742C420.259 214.744 425.932 228.908 432.486 242.856C439.333 257.341 446.962 271.129 455.13 283.843L479.534 262.277C473.959 262.009 463.444 257.448 451.119 232.502C443.979 218.071 441.044 202.835 443.636 193.661C443.979 192.48 444.37 191.461 444.859 190.495L415.613 200.742Z" fill="black"/>
<path d="M593.521 102.987C615.879 91.1182 624.527 63.2531 612.836 40.7484C601.146 18.2437 573.544 9.62152 551.186 21.4902C528.828 33.359 520.18 61.2241 531.871 83.7288C543.562 106.234 571.163 114.856 593.521 102.987Z" fill="black"/>
<path d="M551.531 56.107C553.683 52.8881 556.862 50.9031 560.481 50.4739C563.22 50.152 565.763 50.7958 568.159 52.4052C569.382 53.21 570.458 54.2293 571.485 55.4632C572.219 54.0147 573.099 52.7271 574.126 51.6542C576.131 49.5082 578.528 48.2743 581.217 47.9524C584.836 47.5232 588.358 48.7035 591.097 51.3323C593.786 53.9074 595.498 57.6628 595.938 61.901C596.378 66.2465 595.302 70.4311 592.564 75.0448C590.118 79.1757 586.401 83.4676 582.098 88.5105C580.631 90.2273 578.968 92.1586 577.256 94.1973C576.816 94.7338 576.18 95.1093 575.495 95.1629C574.811 95.2702 574.175 95.0556 573.588 94.6264C571.485 93.017 569.48 91.5149 567.719 90.2273C562.535 86.3646 558.036 83.0384 554.808 79.6049C551.189 75.7959 549.33 71.9332 548.89 67.5877C548.499 63.3495 549.428 59.2722 551.531 56.107Z" fill="white"/>
<path d="M720.363 114.118C736.731 96.1636 736.731 67.0532 720.363 49.0984C703.995 31.1436 677.458 31.1436 661.09 49.0984C644.722 67.0532 644.722 96.1636 661.09 114.118C677.458 132.073 703.995 132.073 720.363 114.118Z" fill="#B9FF66"/>
<path d="M690.719 128.747C667.049 128.747 647.73 107.61 647.73 81.5904C647.73 55.6247 667 34.4336 690.719 34.4336C714.439 34.4336 733.708 55.571 733.708 81.5904C733.708 107.556 714.439 128.747 690.719 128.747ZM690.719 36.7941C668.222 36.7941 649.882 56.8586 649.882 81.5904C649.882 106.269 668.173 126.387 690.719 126.387C713.216 126.387 731.556 106.322 731.556 81.5904C731.556 56.9122 713.265 36.7941 690.719 36.7941Z" fill="#B9FF66"/>
<path d="M702.063 79.7302C699.716 79.7302 697.662 80.8673 696.292 82.6471L682.158 77.0605C682.158 76.8628 682.207 76.7145 682.207 76.5167C682.207 76.1706 682.158 75.8246 682.109 75.4785L696.586 68.7053C697.906 70.2379 699.862 71.2267 702.063 71.2762C706.074 71.2762 709.399 67.9638 709.399 63.8603C709.399 59.7569 706.122 56.395 702.063 56.395C698.053 56.395 694.727 59.7074 694.727 63.8109C694.727 64.1569 694.776 64.503 694.825 64.8491L680.349 71.6222C679.028 70.0896 677.072 69.1008 674.871 69.0514C670.861 69.0514 667.535 72.3638 667.535 76.4673C667.535 80.5707 670.812 83.9326 674.871 83.9326C677.219 83.9326 679.273 82.7955 680.642 81.0157L694.776 86.6023C694.776 86.8 694.727 86.9483 694.727 87.1461C694.727 91.2495 698.004 94.6114 702.063 94.6114C706.074 94.6114 709.399 91.299 709.399 87.1955C709.35 83.0921 706.074 79.7797 702.063 79.7302Z" fill="black"/>
<path d="M702.618 259.844C721.812 245.231 726.634 216.414 713.389 195.482C700.143 174.549 673.847 169.427 654.653 184.04C635.46 198.654 630.638 227.47 643.883 248.403C657.128 269.336 683.425 274.458 702.618 259.844Z" fill="black"/>
<path d="M668.073 243.93L661.911 207.288C661.617 205.41 663.182 203.855 664.845 204.337L701.28 215.657C703.139 216.247 703.579 218.876 702.063 220.164L671.741 245.486C670.42 246.666 668.415 245.861 668.073 243.93Z" fill="white"/>
<path d="M678.218 409.937C701.921 397.279 711.838 366.071 700.371 340.23C688.903 314.39 660.392 303.703 636.69 316.361C612.988 329.018 603.07 360.227 614.538 386.067C626.005 411.907 654.516 422.594 678.218 409.937Z" fill="#B9FF66"/>
<path d="M657.214 416.463C652.127 416.463 646.943 415.604 641.906 413.727C629.581 409.22 619.604 399.778 613.833 387.01C608.062 374.295 607.182 359.864 611.339 346.344C619.947 318.501 647.628 303.318 673.108 312.6C685.433 317.106 695.41 326.548 701.181 339.316C706.952 352.031 707.832 366.462 703.675 379.982C696.73 402.3 677.608 416.463 657.214 416.463ZM657.703 312.278C638.189 312.278 619.898 325.797 613.295 347.149C609.334 360.078 610.165 373.866 615.692 385.99C621.218 398.169 630.755 407.235 642.542 411.527C666.897 420.379 693.355 405.894 701.572 379.284C705.533 366.355 704.702 352.568 699.175 340.443C693.649 328.265 684.112 319.198 672.326 314.906C667.484 313.082 662.544 312.278 657.703 312.278Z" fill="black"/>
<path d="M681.769 354.714C681.28 367.751 661.18 398.223 656.387 405.358C655.898 406.109 654.871 406.056 654.43 405.251C651.398 399.886 641.372 381.86 636.139 367.268C634.036 361.474 632.716 356.216 632.863 352.515C633.401 337.708 644.796 326.173 658.294 326.763C671.792 327.461 682.307 339.907 681.769 354.714Z" fill="black"/>
<path d="M665.226 362.336C669.6 357.538 669.6 349.76 665.226 344.962C660.853 340.164 653.762 340.164 649.388 344.962C645.014 349.76 645.014 357.538 649.388 362.336C653.762 367.134 660.853 367.134 665.226 362.336Z" fill="#B9FF66"/>
<defs>
<clipPath id="clip0_922_307">
<rect width="44.9655" height="45.4368" fill="white" transform="translate(365.965 538.932)"/>
</clipPath>
<clipPath id="clip1_922_307">
<rect width="88.3016" height="88.3016" fill="white" transform="matrix(0.703411 0.710784 -0.703411 0.710784 134.555 395.048)"/>
</clipPath>
</defs>
</svg>
