<svg width="97" height="41" viewBox="0 0 97 41" fill="none" xmlns="http://www.w3.org/2000/svg">
<g clip-path="url(#clip0_1267_626)">
<circle cx="20.5" cy="20.5" r="20.5" fill="white"/>
<path d="M11.2501 24.7009C10.5326 25.1151 10.2868 26.0325 10.701 26.75C11.1152 27.4674 12.0326 27.7132 12.7501 27.299L11.2501 24.7009ZM30.7695 16.3882C30.9839 15.588 30.509 14.7655 29.7088 14.5511L16.6688 11.057C15.8686 10.8426 15.0461 11.3175 14.8317 12.1177C14.6173 12.9179 15.0921 13.7404 15.8923 13.9548L27.4835 17.0606L24.3776 28.6517C24.1632 29.4519 24.6381 30.2744 25.4383 30.4888C26.2385 30.7033 27.061 30.2284 27.2754 29.4282L30.7695 16.3882ZM12.0001 26L12.7501 27.299L30.0706 17.299L29.3206 16L28.5706 14.7009L11.2501 24.7009L12.0001 26Z" fill="black"/>
<circle cx="76.5" cy="20.5" r="20.5" fill="#191A23"/>
<path d="M67.2501 24.7009C66.5326 25.1151 66.2868 26.0325 66.701 26.75C67.1152 27.4674 68.0326 27.7132 68.7501 27.299L67.2501 24.7009ZM86.7695 16.3882C86.9839 15.588 86.509 14.7655 85.7088 14.5511L72.6688 11.057C71.8686 10.8426 71.0461 11.3175 70.8317 12.1177C70.6173 12.9179 71.0921 13.7404 71.8923 13.9548L83.4835 17.0606L80.3776 28.6517C80.1632 29.4519 80.6381 30.2744 81.4383 30.4888C82.2385 30.7033 83.061 30.2284 83.2754 29.4282L86.7695 16.3882ZM68.0001 26L68.7501 27.299L86.0706 17.299L85.3206 16L84.5706 14.7009L67.2501 24.7009L68.0001 26Z" fill="#B9FF66"/>
</g>
<defs>
<clipPath id="clip0_1267_626">
<rect width="97" height="41" fill="white"/>
</clipPath>
</defs>
</svg>
